<svg xmlns="http://www.w3.org/2000/svg" width="24" height="24" viewBox="0 0 24 24">
    <path fill="#FFFFFF" d="M 14 2 C 12.895431 2 12 2.8954305 12 4 C 12 4.1829443 12.016492 4.3628978 12.0625 4.53125 L 9.9375 6.25 C 9.6569454 6.100054 9.3403409 6 9 6 C 8.3420194 6 7.7707392 6.3220869 7.40625 6.8125 L 5.9375 6.5 C 5.7155373 5.6373007 4.9319805 5 4 5 C 2.8954305 5 2 5.8954305 2 7 C 2 8.1045695 2.8954305 9 4 9 C 4.7053063 9 5.3314115 8.6452578 5.6875 8.09375 L 7.03125 8.375 C 7.2060327 9.3012543 8.0229433 10 9 10 C 10.104569 10 11 9.1045695 11 8 C 11 7.8170557 10.983508 7.6371022 10.9375 7.46875 L 13.0625 5.78125 C 13.339919 5.9268842 13.664936 6 14 6 C 14.325391 6 14.634703 5.9191179 14.90625 5.78125 L 18.09375 8.4375 C 18.040807 8.6171014 18 8.8032486 18 9 C 18 10.104569 18.895431 11 20 11 C 21.104569 11 22 10.104569 22 9 C 22 7.8954305 21.104569 7 20 7 C 19.674609 7 19.365297 7.0808821 19.09375 7.21875 L 15.90625 4.5625 C 15.959193 4.3828986 16 4.1967514 16 4 C 16 2.8954305 15.104569 2 14 2 z M 12 12 L 12 22 L 16 22 L 16 12 L 12 12 z M 17 15 L 17 22 L 21 22 L 21 15 L 17 15 z M 2 16 L 2 22 L 6 22 L 6 16 L 2 16 z M 7 17 L 7 22 L 11 22 L 11 17 L 7 17 z"></path>
</svg>