<svg xmlns="http://www.w3.org/2000/svg" width="50" height="32" viewBox="0 0 50 32">
    <path fill="#FFFFFF" d="M 14,3e-7 C 12.346,3e-7 11,1.3460003 11,3 l 0,26 c 0,1.654 1.346,3 3,3 l 2,0 c 1.654,0 3,-1.346 3,-3 L 19,3 C 19,1.3460003 17.654,3e-7 16,3e-7 l -2,0 z m 20,0 C 32.346,3e-7 31,1.3460003 31,3 l 0,26 c 0,1.654 1.346,3 3,3 l 2,0 c 1.654,0 3,-1.346 3,-3 L 39,3 C 39,1.3460003 37.654,3e-7 36,3e-7 l -2,0 z M 7,4 C 5.346,4 4,5.346 4,7 l 0,18 c 0,1.654 1.346,3 3,3 L 9,28 9,4 7,4 Z m 34,0 0,24 2,0 c 1.654,0 3,-1.346 3,-3 L 46,7 C 46,5.346 44.654,4 43,4 L 41,4 Z M 2,12 c -1.103,0 -2,0.897 -2,2 l 0,4 c 0,1.103 0.897,2 2,2 l 0,-8 z m 19,0 0,8 8,0 0,-8 -8,0 z m 27,0 0,8 c 1.103,0 2,-0.897 2,-2 l 0,-4 c 0,-1.103 -0.897,-2 -2,-2 z"></path>
</svg>