<svg version="1" xmlns="http://www.w3.org/2000/svg" width="26" height="26" viewBox="0 0 26 26">
    <defs>
        <style><![CDATA[
            .icon { fill: #FFFFFF; display: none; }
            .icon.dark { fill: #676269; }
            .icon.primary { fill: #57a9e6; }
            .icon:target { display: inline; }
        ]]></style>
        <g id="dashboard-g">
            <path d="M 12 3 C 6.464844 3 2 7.464844 2 13 C 2 15.234375 2.792969 17.261719 4 18.90625 L 5.59375 17.71875 C 4.601563 16.363281 4 14.765625 4 13 C 4 8.535156 7.535156 5 12 5 C 16.464844 5 20 8.535156 20 13 C 20 14.765625 19.398438 16.363281 18.40625 17.71875 L 20 18.90625 C 21.207031 17.261719 22 15.234375 22 13 C 22 7.464844 17.535156 3 12 3 Z M 15.6875 7.90625 L 12.15625 11.4375 C 12.101563 11.433594 12.054688 11.40625 12 11.40625 C 11.117188 11.40625 10.40625 12.117188 10.40625 13 C 10.40625 13.882813 11.117188 14.59375 12 14.59375 C 12.882813 14.59375 13.59375 13.882813 13.59375 13 C 13.59375 12.945313 13.566406 12.898438 13.5625 12.84375 L 17.09375 9.3125 Z " style="fill: inherit;"></path>
        </g>
        <g id="dumb-bell-g">
            <path d="M 5 4 L 5 20 L 8 20 L 8 14 L 16 14 L 16 20 L 19 20 L 19 4 L 16 4 L 16 10 L 8 10 L 8 4 Z M 2 5 L 2 10 L 0 10 L 0 14 L 2 14 L 2 19 L 4 19 L 4 5 Z M 20 5 L 20 19 L 22 19 L 22 14 L 24 14 L 24 10 L 22 10 L 22 5 Z " style="fill: inherit;"></path>
        </g>
        <g id="diagram-g">
            <path d="m 15,3 c -1.104569,0 -2,0.8954305 -2,2 0,0.1829443 0.01649,0.3628978 0.0625,0.53125 L 10.9375,7.25 C 10.656945,7.100054 10.340341,7 10,7 9.3420194,7 8.7707392,7.3220869 8.40625,7.8125 L 6.9375,7.5 C 6.7155373,6.6373007 5.9319805,6 5,6 3.8954305,6 3,6.8954305 3,8 3,9.1045695 3.8954305,10 5,10 5.7053063,10 6.3314115,9.6452578 6.6875,9.09375 L 8.03125,9.375 C 8.2060327,10.301254 9.0229433,11 10,11 c 1.104569,0 2,-0.89543 2,-2 0,-0.1829443 -0.01649,-0.3628978 -0.0625,-0.53125 l 2.125,-1.6875 C 14.339919,6.9268842 14.664936,7 15,7 15.325391,7 15.634703,6.919118 15.90625,6.78125 l 3.1875,2.65625 C 19.040807,9.6171014 19,9.8032486 19,10 c 0,1.104569 0.895431,2 2,2 1.104569,0 2,-0.895431 2,-2 C 23,8.8954305 22.104569,8 21,8 20.674609,8 20.365297,8.080882 20.09375,8.21875 L 16.90625,5.5625 C 16.959193,5.3828986 17,5.1967514 17,5 17,3.8954305 16.104569,3 15,3 Z m -2,10 0,10 4,0 0,-10 -4,0 z m 5,3 0,7 4,0 0,-7 -4,0 z m -15,1 0,6 4,0 0,-6 -4,0 z m 5,1 0,5 4,0 0,-5 -4,0 z" style="fill: inherit;"></path>
        </g>
        <g id="secondary-menu-g">
            <path d="M 12 3 C 10.894531 3 10 3.894531 10 5 C 10 6.105469 10.894531 7 12 7 C 13.105469 7 14 6.105469 14 5 C 14 3.894531 13.105469 3 12 3 Z M 12 10 C 10.894531 10 10 10.894531 10 12 C 10 13.105469 10.894531 14 12 14 C 13.105469 14 14 13.105469 14 12 C 14 10.894531 13.105469 10 12 10 Z M 12 17 C 10.894531 17 10 17.894531 10 19 C 10 20.105469 10.894531 21 12 21 C 13.105469 21 14 20.105469 14 19 C 14 17.894531 13.105469 17 12 17 Z" style="fill: inherit;"></path>
        </g>
        <g id="success-g">
            <path d="M 12 2 C 6.5 2 2 6.5 2 12 C 2 17.5 6.5 22 12 22 C 17.199219 22 21.40625 18.101563 21.90625 13 L 19.90625 13 C 19.40625 16.898438 16 20 12 20 C 7.601563 20 4 16.398438 4 12 C 4 7.601563 7.601563 4 12 4 C 13.398438 4 14.707031 4.398438 15.90625 5 L 17.40625 3.5 C 15.804688 2.601563 14 2 12 2 Z M 20.5 4.875 L 11.1875 13.78125 L 7.5 10.09375 L 6.09375 11.5 L 11.1875 16.59375 L 11.90625 15.90625 L 21.90625 6.3125 Z" style="fill: inherit;"></path>
        </g>
        <g id="notice-g">
            <path d="M 11.5 2 C 10.121094 2 9 3.121094 9 4.5 C 9 5.878906 10.121094 7 11.5 7 C 12.878906 7 14 5.878906 14 4.5 C 14 3.121094 12.878906 2 11.5 2 Z M 7 9 L 7 11 L 11 11 L 11 20 L 7 20 L 7 22 L 17 22 L 17 20 L 13 20 L 13 9 Z" style="fill: inherit;"></path>
        </g>
        <g id="error-g">
            <path d="M 12 2 C 6.5 2 2 6.5 2 12 C 2 17.5 6.5 22 12 22 C 17.5 22 22 17.5 22 12 C 22 6.5 17.5 2 12 2 Z M 12 4 C 16.398438 4 20 7.601563 20 12 C 20 16.398438 16.398438 20 12 20 C 7.601563 20 4 16.398438 4 12 C 4 7.601563 7.601563 4 12 4 Z M 11 7 L 11 13 L 13 13 L 13 7 Z M 11 15 L 11 17 L 13 17 L 13 15 Z" style="fill: inherit;"></path>
        </g>
        <g id="history-g">
            <path d="M 10.207007,-2.6868923e-5 C 7.391914,-2.6868923e-5 4.8447552,1.1477511 2.9983076,2.9982816 l -1.9776077,-1.9776077 0,5.1035038 5.1035037,0 L 4.433668,4.433642 c 1.4779747,-1.4789954 3.5216728,-2.3922673 5.773339,-2.3922673 4.502311,0 8.165606,3.663295 8.165606,8.1656053 0,4.502311 -3.663295,8.165606 -8.165606,8.165606 -4.5023114,0 -8.1656064,-3.663295 -8.1656064,-8.165606 0,-0.3460169 0.020924,-0.6859102 0.063794,-1.0207001 l -2.04140151,0 C 0.03010999,9.5220905 -7.1499791e-7,9.8619838 -7.1499791e-7,10.20698 -7.1499791e-7,15.835124 4.5788629,20.413988 10.207007,20.413988 c 5.628143,0 10.207007,-4.578864 10.207007,-10.207008 0,-5.6281433 -4.578864,-10.207006868923 -10.207007,-10.207006868923 z M 9.1863059,5.1034769 l 0,5.5181631 3.3491741,3.349174 1.435361,-1.43536 -2.743134,-2.743133 0,-4.6888441 -2.0414011,0 z" style="fill: inherit;"/>
        </g>
        <g id="arrow-g">
            <path d="M 3.2128906,7.2714844 C 2.9338311,7.3206901 2.6741727,7.4769818 2.4980469,7.7285156 L 1.2988281,9.4394531 C 0.94657642,9.9425207 1.067245,10.632123 1.5703125,10.984375 l 10.7949215,7.558594 c 0.182243,0.105218 0.385742,0.181669 0.628904,0.181669 0.248006,0 0.44612,-0.06739 0.640625,-0.17969 l 10.794922,-7.558594 c 0.503067,-0.352252 0.623736,-1.0418543 0.271484,-1.5449218 L 23.501953,7.7304688 C 23.149701,7.2274013 22.462052,7.1047796 21.958984,7.4570312 L 13.001953,13.728516 4.0410156,7.4550781 C 3.7894819,7.2789523 3.4919501,7.2222787 3.2128906,7.2714844 Z" style="fill: inherit;"></path>
        </g>
        <g id="add-g">
            <path d="M 11.261719 2.5214844 C 10.655781 2.5214844 10.167969 3.0092969 10.167969 3.6152344 L 10.167969 10.167969 L 3.6152344 10.167969 C 3.0092969 10.167969 2.5214844 10.655781 2.5214844 11.261719 L 2.5214844 14.738281 C 2.5214844 15.344219 3.0092969 15.832031 3.6152344 15.832031 L 10.167969 15.832031 L 10.167969 22.384766 C 10.167969 22.990703 10.655781 23.478516 11.261719 23.478516 L 14.738281 23.478516 C 15.344219 23.478516 15.832031 22.990703 15.832031 22.384766 L 15.832031 15.832031 L 22.384766 15.832031 C 22.990703 15.832031 23.478516 15.344219 23.478516 14.738281 L 23.478516 11.261719 C 23.478516 10.655781 22.990703 10.167969 22.384766 10.167969 L 15.832031 10.167969 L 15.832031 3.6152344 C 15.832031 3.0092969 15.344219 2.5214844 14.738281 2.5214844 L 11.261719 2.5214844 z " style="fill: inherit;"></path>
        </g>
        <g id="edit-g">
            <path d="m 17.622192,11.20698 c 0,-0.3 0.1,-0.7 0.1,-1 0,-0.2999996 0,-0.6999996 -0.1,-0.9999996 l 2.1,-1.5 c 0.2,-0.1 0.3,-0.4 0.1,-0.7 l -2,-3.5 c -0.1,-0.3 -0.4,-0.4 -0.6,-0.3 l -2.4,1.1 c -0.5,-0.4 -1.2,-0.8 -1.8,-1 l -0.3,-2.59999996 c 0,-0.3 -0.2,-0.5 -0.5,-0.5 l -3.9999998,0 c -0.3,0 -0.5,0.2 -0.5,0.5 l -0.3,2.49999996 c -0.7,0.3 -1.3,0.6 -1.8,1 l -2.4,-1 c -0.2,-0.1 -0.5,0 -0.6,0.2 l -2,3.5 c -0.2,0.3 -0.2,0.6 0.1,0.7 l 2.1,1.6 c 0,0.3 -0.1,0.7 -0.1,0.9999996 0,0.3 0,0.7 0.1,1 l -2.1,1.5 c -0.2,0.1 -0.3,0.4 -0.1,0.7 l 2,3.5 c 0.1,0.3 0.4,0.4 0.6,0.3 l 2.4,-1.1 c 0.5,0.4 1.2,0.8 1.8,1 l 0.3,2.6 c 0,0.3 0.2,0.5 0.5,0.5 l 3.9999998,0 c 0.3,0 0.5,-0.2 0.5,-0.5 l 0.3,-2.6 c 0.7,-0.3 1.3,-0.6 1.8,-1 l 2.4,1.1 c 0.2,0.1 0.5,0 0.6,-0.2 l 2,-3.5 c 0.1,-0.2 0.1,-0.5 -0.1,-0.7 l -2.1,-1.6 z m -7.4,3 c -2.1999998,0 -3.9999998,-1.8 -3.9999998,-4 0,-2.1999996 1.8,-3.9999996 3.9999998,-3.9999996 2.2,0 4,1.8 4,3.9999996 0,2.2 -1.8,4 -4,4 z" style="fill: inherit;"></path>
        </g>
        <g id="delete-g">
            <path d="M21.736,19.64l-2.098,2.096c-0.383,0.386-1.011,0.386-1.396,0l-5.241-5.239L7.76,21.735 c-0.385,0.386-1.014,0.386-1.397-0.002L4.264,19.64c-0.385-0.386-0.385-1.011,0-1.398L9.505,13l-5.24-5.24 c-0.384-0.387-0.384-1.016,0-1.398l2.098-2.097c0.384-0.388,1.013-0.388,1.397,0L13,9.506l5.242-5.241 c0.386-0.388,1.014-0.388,1.396,0l2.098,2.094c0.386,0.386,0.386,1.015,0.001,1.401L16.496,13l5.24,5.241 C22.121,18.629,22.121,19.254,21.736,19.64z" style="fill: inherit;"></path>
        </g>
        <g id="checked-g">
            <path d="M 19.28125 5.28125 L 9 15.5625 L 4.71875 11.28125 L 3.28125 12.71875 L 8.28125 17.71875 L 9 18.40625 L 9.71875 17.71875 L 20.71875 6.71875 Z" style="fill: inherit;"></path>
        </g>
        <g id="statistics-g">
            <path d="M 11 2 L 11 3 L 2 3 L 2 17 L 9.34375 17 L 6 22 L 8.5 22 L 11.84375 17 L 12.15625 17 L 15.5 22 L 18 22 L 14.65625 17 L 22 17 L 22 3 L 13 3 L 13 2 Z M 4 5 L 20 5 L 20 15 L 4 15 Z M 15 6.59375 L 14.28125 7.28125 L 11 10.5625 L 9.71875 9.28125 L 9 8.59375 L 8.28125 9.28125 L 6.28125 11.28125 L 7.71875 12.71875 L 9 11.4375 L 10.28125 12.71875 L 11 13.40625 L 11.71875 12.71875 L 15 9.4375 L 16.28125 10.71875 L 17.71875 9.28125 L 15.71875 7.28125 Z" style="fill: inherit;"></path>
        </g>
        <g id="line-chart-g">
            <path d="M 20 2 C 18.894531 2 18 2.894531 18 4 C 18 4.339844 18.101563 4.65625 18.25 4.9375 L 16.53125 7.0625 C 16.363281 7.015625 16.183594 7 16 7 C 15.511719 7 15.066406 7.179688 14.71875 7.46875 L 12 6.09375 C 12 6.0625 12 6.03125 12 6 C 12 4.894531 11.105469 4 10 4 C 8.894531 4 8 4.894531 8 6 C 8 6.03125 8 6.0625 8 6.09375 L 5.28125 7.46875 C 4.933594 7.179688 4.488281 7 4 7 C 2.894531 7 2 7.894531 2 9 C 2 10.105469 2.894531 11 4 11 C 5.105469 11 6 10.105469 6 9 C 6 8.957031 6.003906 8.917969 6 8.875 L 8.71875 7.53125 C 9.066406 7.820313 9.511719 8 10 8 C 10.488281 8 10.933594 7.820313 11.28125 7.53125 L 14 8.875 C 13.996094 8.917969 14 8.957031 14 9 C 14 10.105469 14.894531 11 16 11 C 17.105469 11 18 10.105469 18 9 C 18 8.660156 17.898438 8.34375 17.75 8.0625 L 19.46875 5.9375 C 19.636719 5.984375 19.816406 6 20 6 C 21.105469 6 22 5.105469 22 4 C 22 2.894531 21.105469 2 20 2 Z M 20 13 C 18.894531 13 18 13.894531 18 15 C 18 15.316406 18.089844 15.609375 18.21875 15.875 L 16.5 18.0625 C 16.339844 18.019531 16.171875 18 16 18 C 15.660156 18 15.34375 18.101563 15.0625 18.25 L 12.9375 16.53125 C 12.984375 16.363281 13 16.183594 13 16 C 13 14.894531 12.105469 14 11 14 C 9.992188 14 9.167969 14.746094 9.03125 15.71875 L 5.53125 16.71875 C 5.164063 16.28125 4.617188 16 4 16 C 2.894531 16 2 16.894531 2 18 C 2 19.105469 2.894531 20 4 20 C 5.007813 20 5.832031 19.253906 5.96875 18.28125 L 9.5 17.28125 C 9.867188 17.710938 10.390625 18 11 18 C 11.324219 18 11.632813 17.917969 11.90625 17.78125 L 14.0625 19.46875 C 14.015625 19.636719 14 19.816406 14 20 C 14 21.105469 14.894531 22 16 22 C 17.105469 22 18 21.105469 18 20 C 18 19.660156 17.898438 19.34375 17.75 19.0625 L 19.4375 16.90625 C 19.617188 16.960938 19.804688 17 20 17 C 21.105469 17 22 16.105469 22 15 C 22 13.894531 21.105469 13 20 13 Z" style="fill: inherit;"></path>
        </g>
        <g id="schedule-g">
            <path d="M 8 2 C 4.699219 2 2 4.699219 2 8 C 2 11.300781 4.699219 14 8 14 C 11.300781 14 14 11.300781 14 8 C 14 4.699219 11.300781 2 8 2 Z M 17 2 L 17 4 L 13.6875 4 C 14.488281 5.101563 15 6.5 15 8 C 15 8.300781 15.007813 8.699219 14.90625 9 L 20 9 L 20 20 L 6 20 L 6 14.6875 C 5.300781 14.488281 4.601563 14.1875 4 13.6875 L 4 20 C 4 21.101563 4.898438 22 6 22 L 20 22 C 21.101563 22 22 21.101563 22 20 L 22 6 C 22 4.898438 21.101563 4 20 4 L 19 4 L 19 2 Z M 8 4 C 10.222656 4 12 5.777344 12 8 C 12 10.222656 10.222656 12 8 12 C 5.777344 12 4 10.222656 4 8 C 4 5.777344 5.777344 4 8 4 Z M 7 5 L 7 8.40625 L 7.28125 8.71875 L 8.90625 10.3125 L 10.3125 8.90625 L 9 7.5625 L 9 5 Z M 13 13 L 13 18 L 18 18 L 18 13 Z" style="fill: inherit;"></path>
        </g>
        <g id="benchpress-g">
            <path d="M 9 4 C 7.34375 4 6 5.34375 6 7 C 6 8.65625 7.34375 10 9 10 C 10.65625 10 12 8.65625 12 7 C 12 5.34375 10.65625 4 9 4 Z M 9 6 C 9.550781 6 10 6.449219 10 7 C 10 7.550781 9.550781 8 9 8 C 8.449219 8 8 7.550781 8 7 C 8 6.449219 8.449219 6 9 6 Z M 8 10.84375 L 8 16 L 19 16 L 19 20 L 21 20 L 21 15 C 20.960938 13.96875 20.035156 13.761719 18.84375 13.5625 L 14 13 L 10 13 L 10 10.84375 C 9.679688 10.925781 9.347656 11 9 11 C 8.652344 11 8.320313 10.925781 8 10.84375 Z M 5 12 C 3.894531 12 3 12.894531 3 14 C 3 15.105469 3.894531 16 5 16 C 6.105469 16 7 15.105469 7 14 C 7 12.894531 6.105469 12 5 12 Z M 3 17 L 3 19 L 18 19 L 18 17 Z" style="fill: inherit;"></path>
        </g>
        <g id="user-squared-g">
            <path d="M 4 2 C 2.90625 2 2 2.90625 2 4 L 2 20 C 2 21.09375 2.90625 22 4 22 L 20 22 C 21.09375 22 22 21.09375 22 20 L 22 4 C 22 2.90625 21.09375 2 20 2 Z M 4 4 L 20 4 L 20 20 L 4 20 Z M 12 6 C 10.34375 6 9 7.34375 9 9 C 9 10.65625 10.34375 12 12 12 C 13.65625 12 15 10.65625 15 9 C 15 7.34375 13.65625 6 12 6 Z M 12 14 C 7.441406 14 6 16.65625 6 16.65625 L 6 18 L 18 18 L 18 16.65625 C 18 16.65625 16.558594 14 12 14 Z" style="fill: inherit;"></path>
        </g>
        <g id="offline-g">
            <path d="M 3.90625 2.28125 L 2.5 3.71875 L 4.34375 5.5625 C 2.882813 7.300781 2 9.558594 2 12 C 2 15.160156 3.480469 17.976563 5.78125 19.8125 L 7.03125 18.25 C 5.191406 16.78125 4 14.53125 4 12 C 4 10.113281 4.679688 8.367188 5.78125 7 L 7.1875 8.40625 C 6.445313 9.402344 6 10.664063 6 12 C 6 13.898438 6.902344 15.585938 8.28125 16.6875 L 9.53125 15.09375 C 8.613281 14.359375 8 13.265625 8 12 C 8 11.214844 8.261719 10.488281 8.65625 9.875 L 10.53125 11.75 C 10.515625 11.832031 10.5 11.914063 10.5 12 C 10.5 12.828125 11.171875 13.5 12 13.5 C 12.085938 13.5 12.167969 13.484375 12.25 13.46875 L 20.5 21.71875 L 21.90625 20.28125 Z M 18.25 4.1875 L 17 5.75 C 18.828125 7.21875 20 9.476563 20 12 C 20 13.195313 19.722656 14.292969 19.25 15.3125 L 20.71875 16.8125 C 21.515625 15.378906 22 13.75 22 12 C 22 8.847656 20.539063 6.023438 18.25 4.1875 Z M 15.75 7.3125 L 14.5 8.875 C 15.414063 9.609375 16 10.738281 16 12 C 16 12.027344 16 12.035156 16 12.0625 L 17.71875 13.78125 C 17.898438 13.210938 18 12.628906 18 12 C 18 10.109375 17.121094 8.414063 15.75 7.3125 Z" style="fill: inherit;"></path>
        </g>
        <g id="question-g">
            <path d="M 12 2 C 8.699219 2 6 4.699219 6 8 L 8 8 C 8 5.800781 9.800781 4 12 4 C 14.199219 4 16 5.800781 16 8 C 16 10.199219 14.199219 12 12 12 L 11 12 L 11 18 L 13 18 L 13 13.90625 C 15.800781 13.40625 18 11 18 8 C 18 4.699219 15.300781 2 12 2 Z M 11 20 L 11 22 L 13 22 L 13 20 Z" style="fill: inherit;"></path>
        </g>
    </defs>
    <use class="icon" id="dashboard" href="#dashboard-g"/>
    <use class="icon" id="dumb-bell" href="#dumb-bell-g"/>
    <use class="icon" id="diagram" href="#diagram-g"/>
    <use class="icon dark" id="secondary-menu-dark" href="#secondary-menu-g"/>
    <use class="icon" id="success" href="#success-g"/>
    <use class="icon" id="notice" href="#notice-g"/>
    <use class="icon" id="error" href="#error-g"/>
    <use class="icon" id="history" href="#history-g"/>
    <use class="icon" id="arrow" href="#arrow-g"/>
    <use class="icon dark" id="arrow-dark" href="#arrow-g"/>
    <use class="icon" id="add" href="#add-g"/>
    <use class="icon" id="edit" href="#edit-g"/>
    <use class="icon dark" id="edit-dark" href="#edit-g"/>
    <use class="icon primary" id="edit-primary" href="#edit-g"/>
    <use class="icon" id="delete" href="#delete-g"/>
    <use class="icon dark" id="delete-dark" href="#delete-g"/>
    <use class="icon primary" id="delete-primary" href="#delete-g"/>
    <use class="icon" id="checked" href="#checked-g"/>
    <use class="icon dark" id="checked-dark" href="#checked-g"/>
    <use class="icon" id="statistics" href="#statistics-g"/>
    <use class="icon" id="line-chart" href="#line-chart-g"/>
    <use class="icon" id="schedule" href="#schedule-g"/>
    <use class="icon" id="benchpress" href="#benchpress-g"/>
    <use class="icon" id="user-squared" href="#user-squared-g"/>
    <use class="icon" id="offline" href="#offline-g"/>
    <use class="icon" id="question" href="#question-g"/>
</svg>
