<svg version="1" xmlns="http://www.w3.org/2000/svg" width="26" height="26" viewBox="0 0 26 26">
    <defs>
        <style><![CDATA[
            .icon { fill: #FFFFFF; display: none; }
            .icon.dark { fill: #676269; }
            .icon:target { display: inline; }
        ]]></style>
        <g id="dashboard-g">
            <path d="M 12 3 C 6.464844 3 2 7.464844 2 13 C 2 15.234375 2.792969 17.261719 4 18.90625 L 5.59375 17.71875 C 4.601563 16.363281 4 14.765625 4 13 C 4 8.535156 7.535156 5 12 5 C 16.464844 5 20 8.535156 20 13 C 20 14.765625 19.398438 16.363281 18.40625 17.71875 L 20 18.90625 C 21.207031 17.261719 22 15.234375 22 13 C 22 7.464844 17.535156 3 12 3 Z M 15.6875 7.90625 L 12.15625 11.4375 C 12.101563 11.433594 12.054688 11.40625 12 11.40625 C 11.117188 11.40625 10.40625 12.117188 10.40625 13 C 10.40625 13.882813 11.117188 14.59375 12 14.59375 C 12.882813 14.59375 13.59375 13.882813 13.59375 13 C 13.59375 12.945313 13.566406 12.898438 13.5625 12.84375 L 17.09375 9.3125 Z " style="fill: inherit;"></path>
        </g>
        <g id="dumb-bell-g">
            <path d="M 5 4 L 5 20 L 8 20 L 8 14 L 16 14 L 16 20 L 19 20 L 19 4 L 16 4 L 16 10 L 8 10 L 8 4 Z M 2 5 L 2 10 L 0 10 L 0 14 L 2 14 L 2 19 L 4 19 L 4 5 Z M 20 5 L 20 19 L 22 19 L 22 14 L 24 14 L 24 10 L 22 10 L 22 5 Z " style="fill: inherit;"></path>
        </g>
        <g id="diagram-g">
            <path d="m 15,3 c -1.104569,0 -2,0.8954305 -2,2 0,0.1829443 0.01649,0.3628978 0.0625,0.53125 L 10.9375,7.25 C 10.656945,7.100054 10.340341,7 10,7 9.3420194,7 8.7707392,7.3220869 8.40625,7.8125 L 6.9375,7.5 C 6.7155373,6.6373007 5.9319805,6 5,6 3.8954305,6 3,6.8954305 3,8 3,9.1045695 3.8954305,10 5,10 5.7053063,10 6.3314115,9.6452578 6.6875,9.09375 L 8.03125,9.375 C 8.2060327,10.301254 9.0229433,11 10,11 c 1.104569,0 2,-0.89543 2,-2 0,-0.1829443 -0.01649,-0.3628978 -0.0625,-0.53125 l 2.125,-1.6875 C 14.339919,6.9268842 14.664936,7 15,7 15.325391,7 15.634703,6.919118 15.90625,6.78125 l 3.1875,2.65625 C 19.040807,9.6171014 19,9.8032486 19,10 c 0,1.104569 0.895431,2 2,2 1.104569,0 2,-0.895431 2,-2 C 23,8.8954305 22.104569,8 21,8 20.674609,8 20.365297,8.080882 20.09375,8.21875 L 16.90625,5.5625 C 16.959193,5.3828986 17,5.1967514 17,5 17,3.8954305 16.104569,3 15,3 Z m -2,10 0,10 4,0 0,-10 -4,0 z m 5,3 0,7 4,0 0,-7 -4,0 z m -15,1 0,6 4,0 0,-6 -4,0 z m 5,1 0,5 4,0 0,-5 -4,0 z" style="fill: inherit;"></path>
        </g>
        <g id="secondary-menu-g">
            <path d="M 12 3 C 10.894531 3 10 3.894531 10 5 C 10 6.105469 10.894531 7 12 7 C 13.105469 7 14 6.105469 14 5 C 14 3.894531 13.105469 3 12 3 Z M 12 10 C 10.894531 10 10 10.894531 10 12 C 10 13.105469 10.894531 14 12 14 C 13.105469 14 14 13.105469 14 12 C 14 10.894531 13.105469 10 12 10 Z M 12 17 C 10.894531 17 10 17.894531 10 19 C 10 20.105469 10.894531 21 12 21 C 13.105469 21 14 20.105469 14 19 C 14 17.894531 13.105469 17 12 17 Z" style="fill: inherit;"></path>
        </g>
        <g id="success-g">
            <path d="M 12 2 C 6.5 2 2 6.5 2 12 C 2 17.5 6.5 22 12 22 C 17.199219 22 21.40625 18.101563 21.90625 13 L 19.90625 13 C 19.40625 16.898438 16 20 12 20 C 7.601563 20 4 16.398438 4 12 C 4 7.601563 7.601563 4 12 4 C 13.398438 4 14.707031 4.398438 15.90625 5 L 17.40625 3.5 C 15.804688 2.601563 14 2 12 2 Z M 20.5 4.875 L 11.1875 13.78125 L 7.5 10.09375 L 6.09375 11.5 L 11.1875 16.59375 L 11.90625 15.90625 L 21.90625 6.3125 Z" style="fill: inherit;"></path>
        </g>
        <g id="notice-g">
            <path d="M 11.5 2 C 10.121094 2 9 3.121094 9 4.5 C 9 5.878906 10.121094 7 11.5 7 C 12.878906 7 14 5.878906 14 4.5 C 14 3.121094 12.878906 2 11.5 2 Z M 7 9 L 7 11 L 11 11 L 11 20 L 7 20 L 7 22 L 17 22 L 17 20 L 13 20 L 13 9 Z" style="fill: inherit;"></path>
        </g>
        <g id="error-g">
            <path d="M 12 2 C 6.5 2 2 6.5 2 12 C 2 17.5 6.5 22 12 22 C 17.5 22 22 17.5 22 12 C 22 6.5 17.5 2 12 2 Z M 12 4 C 16.398438 4 20 7.601563 20 12 C 20 16.398438 16.398438 20 12 20 C 7.601563 20 4 16.398438 4 12 C 4 7.601563 7.601563 4 12 4 Z M 11 7 L 11 13 L 13 13 L 13 7 Z M 11 15 L 11 17 L 13 17 L 13 15 Z" style="fill: inherit;"></path>
        </g>
        <g id="history-g">
            <path d="M 10.207007,-2.6868923e-5 C 7.391914,-2.6868923e-5 4.8447552,1.1477511 2.9983076,2.9982816 l -1.9776077,-1.9776077 0,5.1035038 5.1035037,0 L 4.433668,4.433642 c 1.4779747,-1.4789954 3.5216728,-2.3922673 5.773339,-2.3922673 4.502311,0 8.165606,3.663295 8.165606,8.1656053 0,4.502311 -3.663295,8.165606 -8.165606,8.165606 -4.5023114,0 -8.1656064,-3.663295 -8.1656064,-8.165606 0,-0.3460169 0.020924,-0.6859102 0.063794,-1.0207001 l -2.04140151,0 C 0.03010999,9.5220905 -7.1499791e-7,9.8619838 -7.1499791e-7,10.20698 -7.1499791e-7,15.835124 4.5788629,20.413988 10.207007,20.413988 c 5.628143,0 10.207007,-4.578864 10.207007,-10.207008 0,-5.6281433 -4.578864,-10.207006868923 -10.207007,-10.207006868923 z M 9.1863059,5.1034769 l 0,5.5181631 3.3491741,3.349174 1.435361,-1.43536 -2.743134,-2.743133 0,-4.6888441 -2.0414011,0 z" style="fill: inherit;"/>
        </g>
        <g id="arrow-g">
            <path d="M 3.2128906,7.2714844 C 2.9338311,7.3206901 2.6741727,7.4769818 2.4980469,7.7285156 L 1.2988281,9.4394531 C 0.94657642,9.9425207 1.067245,10.632123 1.5703125,10.984375 l 10.7949215,7.558594 c 0.182243,0.105218 0.385742,0.181669 0.628904,0.181669 0.248006,0 0.44612,-0.06739 0.640625,-0.17969 l 10.794922,-7.558594 c 0.503067,-0.352252 0.623736,-1.0418543 0.271484,-1.5449218 L 23.501953,7.7304688 C 23.149701,7.2274013 22.462052,7.1047796 21.958984,7.4570312 L 13.001953,13.728516 4.0410156,7.4550781 C 3.7894819,7.2789523 3.4919501,7.2222787 3.2128906,7.2714844 Z" style="fill: inherit;"></path>
        </g>
        <g id="add-g">
            <path d="M 11.261719 2.5214844 C 10.655781 2.5214844 10.167969 3.0092969 10.167969 3.6152344 L 10.167969 10.167969 L 3.6152344 10.167969 C 3.0092969 10.167969 2.5214844 10.655781 2.5214844 11.261719 L 2.5214844 14.738281 C 2.5214844 15.344219 3.0092969 15.832031 3.6152344 15.832031 L 10.167969 15.832031 L 10.167969 22.384766 C 10.167969 22.990703 10.655781 23.478516 11.261719 23.478516 L 14.738281 23.478516 C 15.344219 23.478516 15.832031 22.990703 15.832031 22.384766 L 15.832031 15.832031 L 22.384766 15.832031 C 22.990703 15.832031 23.478516 15.344219 23.478516 14.738281 L 23.478516 11.261719 C 23.478516 10.655781 22.990703 10.167969 22.384766 10.167969 L 15.832031 10.167969 L 15.832031 3.6152344 C 15.832031 3.0092969 15.344219 2.5214844 14.738281 2.5214844 L 11.261719 2.5214844 z " style="fill: inherit;"></path>
        </g>
        <g id="edit-g">
            <path d="m 17.622192,11.20698 c 0,-0.3 0.1,-0.7 0.1,-1 0,-0.2999996 0,-0.6999996 -0.1,-0.9999996 l 2.1,-1.5 c 0.2,-0.1 0.3,-0.4 0.1,-0.7 l -2,-3.5 c -0.1,-0.3 -0.4,-0.4 -0.6,-0.3 l -2.4,1.1 c -0.5,-0.4 -1.2,-0.8 -1.8,-1 l -0.3,-2.59999996 c 0,-0.3 -0.2,-0.5 -0.5,-0.5 l -3.9999998,0 c -0.3,0 -0.5,0.2 -0.5,0.5 l -0.3,2.49999996 c -0.7,0.3 -1.3,0.6 -1.8,1 l -2.4,-1 c -0.2,-0.1 -0.5,0 -0.6,0.2 l -2,3.5 c -0.2,0.3 -0.2,0.6 0.1,0.7 l 2.1,1.6 c 0,0.3 -0.1,0.7 -0.1,0.9999996 0,0.3 0,0.7 0.1,1 l -2.1,1.5 c -0.2,0.1 -0.3,0.4 -0.1,0.7 l 2,3.5 c 0.1,0.3 0.4,0.4 0.6,0.3 l 2.4,-1.1 c 0.5,0.4 1.2,0.8 1.8,1 l 0.3,2.6 c 0,0.3 0.2,0.5 0.5,0.5 l 3.9999998,0 c 0.3,0 0.5,-0.2 0.5,-0.5 l 0.3,-2.6 c 0.7,-0.3 1.3,-0.6 1.8,-1 l 2.4,1.1 c 0.2,0.1 0.5,0 0.6,-0.2 l 2,-3.5 c 0.1,-0.2 0.1,-0.5 -0.1,-0.7 l -2.1,-1.6 z m -7.4,3 c -2.1999998,0 -3.9999998,-1.8 -3.9999998,-4 0,-2.1999996 1.8,-3.9999996 3.9999998,-3.9999996 2.2,0 4,1.8 4,3.9999996 0,2.2 -1.8,4 -4,4 z" style="fill: inherit;"></path>
        </g>
        <g id="delete-g">
            <path d="M21.736,19.64l-2.098,2.096c-0.383,0.386-1.011,0.386-1.396,0l-5.241-5.239L7.76,21.735 c-0.385,0.386-1.014,0.386-1.397-0.002L4.264,19.64c-0.385-0.386-0.385-1.011,0-1.398L9.505,13l-5.24-5.24 c-0.384-0.387-0.384-1.016,0-1.398l2.098-2.097c0.384-0.388,1.013-0.388,1.397,0L13,9.506l5.242-5.241 c0.386-0.388,1.014-0.388,1.396,0l2.098,2.094c0.386,0.386,0.386,1.015,0.001,1.401L16.496,13l5.24,5.241 C22.121,18.629,22.121,19.254,21.736,19.64z" style="fill: inherit;"></path>
        </g>
        <g id="checked-g">
            <path d="M 19.28125 5.28125 L 9 15.5625 L 4.71875 11.28125 L 3.28125 12.71875 L 8.28125 17.71875 L 9 18.40625 L 9.71875 17.71875 L 20.71875 6.71875 Z" style="fill: inherit;"></path>
        </g>
    </defs>
    <use class="icon" id="dashboard" href="#dashboard-g"/>
    <use class="icon" id="dumb-bell" href="#dumb-bell-g"/>
    <use class="icon" id="diagram" href="#diagram-g"/>
    <use class="icon dark" id="secondary-menu-dark" href="#secondary-menu-g"/>
    <use class="icon" id="success" href="#success-g"/>
    <use class="icon" id="notice" href="#notice-g"/>
    <use class="icon" id="error" href="#error-g"/>
    <use class="icon" id="history" href="#history-g"/>
    <use class="icon" id="arrow" href="#arrow-g"/>
    <use class="icon dark" id="arrow-dark" href="#arrow-g"/>
    <use class="icon" id="add" href="#add-g"/>
    <use class="icon" id="edit" href="#edit-g"/>
    <use class="icon dark" id="edit-dark" href="#edit-g"/>
    <use class="icon" id="delete" href="#delete-g"/>
    <use class="icon dark" id="delete-dark" href="#delete-g"/>
    <use class="icon" id="checked" href="#checked-g"/>
    <use class="icon dark" id="checked-dark" href="#checked-g"/>
</svg>
