<svg version="1" xmlns="http://www.w3.org/2000/svg" width="26" height="26" viewBox="0 0 26 26">
    <defs><style><![CDATA[
        .icon { display: none; }
        .icon:target { display: inline; }
    ]]></style></defs>
    <g class="icon" id="diagram">
        <path d="m 15,3 c -1.104569,0 -2,0.8954305 -2,2 0,0.1829443 0.01649,0.3628978 0.0625,0.53125 L 10.9375,7.25 C 10.656945,7.100054 10.340341,7 10,7 9.3420194,7 8.7707392,7.3220869 8.40625,7.8125 L 6.9375,7.5 C 6.7155373,6.6373007 5.9319805,6 5,6 3.8954305,6 3,6.8954305 3,8 3,9.1045695 3.8954305,10 5,10 5.7053063,10 6.3314115,9.6452578 6.6875,9.09375 L 8.03125,9.375 C 8.2060327,10.301254 9.0229433,11 10,11 c 1.104569,0 2,-0.89543 2,-2 0,-0.1829443 -0.01649,-0.3628978 -0.0625,-0.53125 l 2.125,-1.6875 C 14.339919,6.9268842 14.664936,7 15,7 15.325391,7 15.634703,6.919118 15.90625,6.78125 l 3.1875,2.65625 C 19.040807,9.6171014 19,9.8032486 19,10 c 0,1.104569 0.895431,2 2,2 1.104569,0 2,-0.895431 2,-2 C 23,8.8954305 22.104569,8 21,8 20.674609,8 20.365297,8.080882 20.09375,8.21875 L 16.90625,5.5625 C 16.959193,5.3828986 17,5.1967514 17,5 17,3.8954305 16.104569,3 15,3 Z m -2,10 0,10 4,0 0,-10 -4,0 z m 5,3 0,7 4,0 0,-7 -4,0 z m -15,1 0,6 4,0 0,-6 -4,0 z m 5,1 0,5 4,0 0,-5 -4,0 z" fill="#FFFFFF"/>
    </g>
    <g class="icon" id="dumb-bell">
        <path d="m 7.28,4.68 c -0.86008,0 -1.56,0.69992 -1.56,1.56 l 0,13.52 c 0,0.86008 0.69992,1.56 1.56,1.56 l 1.04,0 c 0.86008,0 1.56,-0.69992 1.56,-1.56 l 0,-13.52 C 9.88,5.37992 9.18008,4.68 8.32,4.68 l -1.04,0 z m 10.4,0 c -0.86008,0 -1.56,0.69992 -1.56,1.56 l 0,13.52 c 0,0.86008 0.69992,1.56 1.56,1.56 l 1.04,0 c 0.86008,0 1.56,-0.69992 1.56,-1.56 l 0,-13.52 c 0,-0.86008 -0.69992,-1.56 -1.56,-1.56 l -1.04,0 z M 3.64,6.76 c -0.86008,0 -1.56,0.69992 -1.56,1.56 l 0,9.36 c 0,0.86008 0.69992,1.56 1.56,1.56 l 1.04,0 0,-12.48 -1.04,0 z m 17.68,0 0,12.48 1.04,0 c 0.86008,0 1.56,-0.69992 1.56,-1.56 l 0,-9.36 c 0,-0.86008 -0.69992,-1.56 -1.56,-1.56 l -1.04,0 z M 1.04,10.92 C 0.46644,10.92 0,11.38644 0,11.96 l 0,2.08 c 0,0.57356 0.46644,1.04 1.04,1.04 l 0,-4.16 z m 9.88,0 0,4.16 4.16,0 0,-4.16 -4.16,0 z m 14.04,0 0,4.16 c 0.57356,0 1.04,-0.46644 1.04,-1.04 l 0,-2.08 c 0,-0.57356 -0.46644,-1.04 -1.04,-1.04 z" fill="#FFFFFF"/>
    </g>
    <g class="icon" id="meal">
        <path d="m 8.2265625,0 0,6.398437 c 0,0.325 -0.3182292,0.64323 -0.6432292,0.64323 -0.325,0 -0.6432291,-0.31823 -0.6432291,-0.64323 l 0,-6.296875 c -1.0833334,0.108334 -1.625,0.23698 -1.625,0.23698 0,0 -0.4401042,4.96302 -0.4401042,7.88802 0,3.25 3.25,3.270313 3.25,4.570313 0,1.083333 -1.0833333,7.786458 -1.0833333,11.036458 C 7.0416667,25.025 8.0166667,26 9.2083333,26 10.4,26 11.375,25.025 11.375,23.833333 c 0,-3.25 -1.083333,-9.980208 -1.083333,-11.171875 0,-1.191666 3.25,-1.184896 3.25,-4.434896 0,-1.841666 -0.338542,-7.88802 -0.338542,-7.88802 0,0 -0.534896,-0.128646 -1.726562,-0.23698 l 0,6.398438 c 0,0.325 -0.31823,0.643229 -0.64323,0.643229 C 10.4,7.143229 10.190104,6.825 10.190104,6.5 l 0,-6.5 -0.9817707,0 -0.9817708,0 z m 7.4817705,0 0,23.833333 C 15.708333,25.025 16.683333,26 17.875,26 c 1.191667,0 2.166667,-0.975 2.166667,-2.166667 0,-2.383333 -1.625,-4.225 -1.625,-7.583333 0,-1.841667 2.708333,-3.791667 2.708333,-3.791667 C 21.125,6.5 17.875,0 15.708333,0 Z" fill="#FFFFFF"/>
    </g>
    <g class="icon" id="success">
        <path d="m 20.045249,4.5437054 -1.791133,-1.79114 c -0.245596,-0.24578 -0.544287,-0.36871 -0.895382,-0.36871 -0.351417,0 -0.650109,0.12293 -0.895704,0.36871 L 7.8231729,11.405475 3.9510736,7.5201854 c -0.2458724,-0.24587 -0.5443791,-0.36867 -0.8954739,-0.36867 -0.3513255,0 -0.6498322,0.1228 -0.8957047,0.36867 L 0.36876257,9.3113655 C 0.1228901,9.5571955 0,9.8557954 0,10.207075 c 0,0.351 0.1228901,0.64987 0.36876257,0.89565 l 4.76757323,4.76748 1.7912708,1.79114 c 0.2457341,0.24596 0.5443331,0.36876 0.8955663,0.36876 0.3510948,0 0.6496937,-0.12312 0.8955662,-0.36876 l 1.7912249,-1.79114 9.535285,-9.5352296 c 0.245641,-0.24588 0.368762,-0.54443 0.368762,-0.89571 1.85e-4,-0.35109 -0.123121,-0.64969 -0.368762,-0.89556 z" fill="#FFFFFF"/>
    </g>
    <g class="icon" id="notice">
        <path d="m 8.3879209,4.6395091 3.7119901,0 c 0.25112,0 0.46851,-0.0918 0.65239,-0.27544 0.18332,-0.18352 0.27528,-0.40107 0.27528,-0.65239 l 0,-2.78371996 c 0,-0.25126 -0.092,-0.46865 -0.27564,-0.65253 -0.18357,-0.18342 -0.40127,-0.275440000791 -0.65243,-0.275440000791 l -3.7116501,0 c -0.25116,0 -0.46865,0.09200000079 -0.65238,0.275440000791 -0.18357,0.18367 -0.27544,0.40127 -0.27544,0.65253 l 0,2.78371996 c 0,0.25132 0.0919,0.46887 0.27544,0.65239 0.18373,0.18367 0.40122,0.27544 0.65244,0.27544 z" fill="#FFFFFF"/>
        <path d="m 14.607791,16.977677 c -0.18347,-0.18367 -0.40102,-0.27559 -0.65239,-0.27559 l -0.92797,0 0,-8.3510498 c 0,-0.25122 -0.0918,-0.46866 -0.27529,-0.65229 -0.18382,-0.18367 -0.40137,-0.27553 -0.65238,-0.27553 l -5.5673901,0 c -0.25131,0 -0.46876,0.0919 -0.65238,0.27553 -0.18373,0.18363 -0.27544,0.40107 -0.27544,0.65229 l 0,1.8558898 c 0,0.25117 0.0918,0.46876 0.27544,0.65229 0.18357,0.18388 0.40107,0.27564 0.65238,0.27564 l 0.9279799,0 0,5.56728 -0.9279799,0 c -0.25131,0 -0.46876,0.0919 -0.65238,0.27559 -0.18373,0.18353 -0.27544,0.40107 -0.27544,0.65239 l 0,1.85585 c 0,0.25126 0.0918,0.46881 0.27544,0.65274 0.18357,0.18332 0.40107,0.27528 0.65238,0.27528 l 7.4230301,0 c 0.25132,0 0.46887,-0.092 0.65239,-0.27528 0.18352,-0.18388 0.27528,-0.40143 0.27528,-0.65274 l 0,-1.85585 c 0,-0.25137 -0.0913,-0.46891 -0.27528,-0.65244 z" fill="#FFFFFF"/>
    </g>
    <g class="icon" id="error">
        <path d="m 13.17178,0.27541222 c -0.1788,-0.18342 -0.3938,-0.275439999818 -0.64527,-0.275439999818 l -4.6393298,0 c -0.25126,0 -0.46617,0.09199999982 -0.64507,0.275439999818 -0.1788,0.18367 -0.26335,0.40127 -0.2537,0.65254 l 0.40584,11.13454978 c 0.01,0.25126 0.10862,0.46901 0.29717,0.65238 0.18845,0.18388 0.40833,0.2758 0.6597,0.2758 l 3.7119598,0 c 0.25096,0 0.47079,-0.0919 0.6597,-0.2758 0.18839,-0.18332 0.28706,-0.40107 0.29717,-0.65238 L 13.42554,0.92795222 c 0.0101,-0.25127 -0.0749,-0.46866 -0.25376,-0.65254 z" fill="#FFFFFF"/>
        <path d="m 12.062857,15.310462 -3.7116501,0 c -0.25137,0 -0.46886,0.092 -0.65259,0.27549 -0.18357,0.18368 -0.27544,0.40102 -0.27544,0.65239 l 0,3.24761 c 0,0.25127 0.0919,0.46882 0.27544,0.65274 0.18388,0.18333 0.40117,0.27529 0.65259,0.27529 l 3.7119601,0 c 0.25096,0 0.46855,-0.092 0.65243,-0.27529 0.18332,-0.18387 0.27524,-0.40142 0.27524,-0.65274 l 0,-3.24761 c 0,-0.25132 -0.0921,-0.46866 -0.27559,-0.65239 -0.18368,-0.18367 -0.40128,-0.27549 -0.65239,-0.27549 z" fill="#FFFFFF"/>
    </g>
    <g class="icon" id="history">
        <path d="M 10.207007,-2.6868923e-5 C 7.391914,-2.6868923e-5 4.8447552,1.1477511 2.9983076,2.9982816 l -1.9776077,-1.9776077 0,5.1035038 5.1035037,0 L 4.433668,4.433642 c 1.4779747,-1.4789954 3.5216728,-2.3922673 5.773339,-2.3922673 4.502311,0 8.165606,3.663295 8.165606,8.1656053 0,4.502311 -3.663295,8.165606 -8.165606,8.165606 -4.5023114,0 -8.1656064,-3.663295 -8.1656064,-8.165606 0,-0.3460169 0.020924,-0.6859102 0.063794,-1.0207001 l -2.04140151,0 C 0.03010999,9.5220905 -7.1499791e-7,9.8619838 -7.1499791e-7,10.20698 -7.1499791e-7,15.835124 4.5788629,20.413988 10.207007,20.413988 c 5.628143,0 10.207007,-4.578864 10.207007,-10.207008 0,-5.6281433 -4.578864,-10.207006868923 -10.207007,-10.207006868923 z M 9.1863059,5.1034769 l 0,5.5181631 3.3491741,3.349174 1.435361,-1.43536 -2.743134,-2.743133 0,-4.6888441 -2.0414011,0 z" fill="#FFFFFF"/>
    </g>
    <g class="icon" id="arrow">
        <path d="M 3.2128906,7.2714844 C 2.9338311,7.3206901 2.6741727,7.4769818 2.4980469,7.7285156 L 1.2988281,9.4394531 C 0.94657642,9.9425207 1.067245,10.632123 1.5703125,10.984375 l 10.7949215,7.558594 c 0.182243,0.105218 0.385742,0.181669 0.628904,0.181669 0.248006,0 0.44612,-0.06739 0.640625,-0.17969 l 10.794922,-7.558594 c 0.503067,-0.352252 0.623736,-1.0418543 0.271484,-1.5449218 L 23.501953,7.7304688 C 23.149701,7.2274013 22.462052,7.1047796 21.958984,7.4570312 L 13.001953,13.728516 4.0410156,7.4550781 C 3.7894819,7.2789523 3.4919501,7.2222787 3.2128906,7.2714844 Z" fill="#FFFFFF"></path>
    </g>
    <g class="icon" id="add">
        <path d="M 11.261719 2.5214844 C 10.655781 2.5214844 10.167969 3.0092969 10.167969 3.6152344 L 10.167969 10.167969 L 3.6152344 10.167969 C 3.0092969 10.167969 2.5214844 10.655781 2.5214844 11.261719 L 2.5214844 14.738281 C 2.5214844 15.344219 3.0092969 15.832031 3.6152344 15.832031 L 10.167969 15.832031 L 10.167969 22.384766 C 10.167969 22.990703 10.655781 23.478516 11.261719 23.478516 L 14.738281 23.478516 C 15.344219 23.478516 15.832031 22.990703 15.832031 22.384766 L 15.832031 15.832031 L 22.384766 15.832031 C 22.990703 15.832031 23.478516 15.344219 23.478516 14.738281 L 23.478516 11.261719 C 23.478516 10.655781 22.990703 10.167969 22.384766 10.167969 L 15.832031 10.167969 L 15.832031 3.6152344 C 15.832031 3.0092969 15.344219 2.5214844 14.738281 2.5214844 L 11.261719 2.5214844 z " fill="#FFFFFF"></path>
    </g>
    <g class="icon" id="edit">
        <path d="m 17.622192,11.20698 c 0,-0.3 0.1,-0.7 0.1,-1 0,-0.2999996 0,-0.6999996 -0.1,-0.9999996 l 2.1,-1.5 c 0.2,-0.1 0.3,-0.4 0.1,-0.7 l -2,-3.5 c -0.1,-0.3 -0.4,-0.4 -0.6,-0.3 l -2.4,1.1 c -0.5,-0.4 -1.2,-0.8 -1.8,-1 l -0.3,-2.59999996 c 0,-0.3 -0.2,-0.5 -0.5,-0.5 l -3.9999998,0 c -0.3,0 -0.5,0.2 -0.5,0.5 l -0.3,2.49999996 c -0.7,0.3 -1.3,0.6 -1.8,1 l -2.4,-1 c -0.2,-0.1 -0.5,0 -0.6,0.2 l -2,3.5 c -0.2,0.3 -0.2,0.6 0.1,0.7 l 2.1,1.6 c 0,0.3 -0.1,0.7 -0.1,0.9999996 0,0.3 0,0.7 0.1,1 l -2.1,1.5 c -0.2,0.1 -0.3,0.4 -0.1,0.7 l 2,3.5 c 0.1,0.3 0.4,0.4 0.6,0.3 l 2.4,-1.1 c 0.5,0.4 1.2,0.8 1.8,1 l 0.3,2.6 c 0,0.3 0.2,0.5 0.5,0.5 l 3.9999998,0 c 0.3,0 0.5,-0.2 0.5,-0.5 l 0.3,-2.6 c 0.7,-0.3 1.3,-0.6 1.8,-1 l 2.4,1.1 c 0.2,0.1 0.5,0 0.6,-0.2 l 2,-3.5 c 0.1,-0.2 0.1,-0.5 -0.1,-0.7 l -2.1,-1.6 z m -7.4,3 c -2.1999998,0 -3.9999998,-1.8 -3.9999998,-4 0,-2.1999996 1.8,-3.9999996 3.9999998,-3.9999996 2.2,0 4,1.8 4,3.9999996 0,2.2 -1.8,4 -4,4 z" fill="#FFFFFF"></path>
    </g>
    <g class="icon" id="delete">
        <path d="M21.736,19.64l-2.098,2.096c-0.383,0.386-1.011,0.386-1.396,0l-5.241-5.239L7.76,21.735 c-0.385,0.386-1.014,0.386-1.397-0.002L4.264,19.64c-0.385-0.386-0.385-1.011,0-1.398L9.505,13l-5.24-5.24 c-0.384-0.387-0.384-1.016,0-1.398l2.098-2.097c0.384-0.388,1.013-0.388,1.397,0L13,9.506l5.242-5.241 c0.386-0.388,1.014-0.388,1.396,0l2.098,2.094c0.386,0.386,0.386,1.015,0.001,1.401L16.496,13l5.24,5.241 C22.121,18.629,22.121,19.254,21.736,19.64z" fill="#FFFFFF"></path>
    </g>
</svg>
