<svg xmlns="http://www.w3.org/2000/svg" width="30" height="48" viewBox="0 0 30 48">
    <path fill="#FFFFFF" d="m 6.1875,0 0,11.8125 C 6.1875,12.4125 5.6,13 5,13 4.4,13 3.8125,12.4125 3.8125,11.8125 l 0,-11.625 c -2,0.2 -3,0.4375 -3,0.4375 0,0 -0.8125,9.1625 -0.8125,14.5625 0,6 6,6.0375 6,8.4375 C 6,25.625 4,38 4,44 c 0,2.2 1.8,4 4,4 2.2,0 4,-1.8 4,-4 0,-6 -2,-18.425 -2,-20.625 0,-2.2 6,-2.1875 6,-8.1875 0,-3.4 -0.625,-14.5625 -0.625,-14.5625 0,0 -0.9875,-0.2375 -3.1875,-0.4375 l 0,11.8125 C 12.1875,12.6 11.6,13.1875 11,13.1875 10.2,13.1875 9.8125,12.6 9.8125,12 l 0,-12 L 8,0 6.1875,0 Z M 20,0 20,44 c 0,2.2 1.8,4 4,4 2.2,0 4,-1.8 4,-4 0,-4.4 -3,-7.8 -3,-14 0,-3.4 5,-7 5,-7 C 30,12 24,0 20,0 Z"></path>
</svg>