<?xml version="1.0" ?><!DOCTYPE svg  PUBLIC '-//W3C//DTD SVG 1.1//EN'  'http://www.w3.org/Graphics/SVG/1.1/DTD/svg11.dtd'><svg enable-background="new 0 0 50 50" height="50px" version="1.1" viewBox="0 0 50 50" width="50px" xml:space="preserve" xmlns="http://www.w3.org/2000/svg" xmlns:xlink="http://www.w3.org/1999/xlink">
    <defs><style><![CDATA[
        path { display: none; }
        path:target { display: inline; }
    ]]></style></defs>
    <path id="female" d="M30.933,32.528c-0.026-0.287-0.045-0.748-0.06-1.226c4.345-0.445,7.393-1.487,7.393-2.701  c-0.012-0.002-0.011-0.05-0.011-0.07c-3.248-2.927,2.816-23.728-8.473-23.306c-0.709-0.6-1.95-1.133-3.73-1.133  c-15.291,1.157-8.53,20.8-12.014,24.508c-0.002,0.001-0.005,0.001-0.007,0.001c0,0.002,0.001,0.004,0.001,0.006  c0,0.001-0.001,0.002-0.001,0.002s0.001,0,0.002,0.001c0.014,1.189,2.959,2.212,7.178,2.668c-0.012,0.29-0.037,0.649-0.092,1.25  C19.367,37.238,7.546,35.916,7,45h38C44.455,35.916,32.685,37.238,30.933,32.528z"></path>
    <path id="male" d="M30.933,32.528c-0.146-1.612-0.09-2.737-0.09-4.21c0.73-0.383,2.038-2.825,2.259-4.888c0.574-0.047,1.479-0.607,1.744-2.818  c0.143-1.187-0.425-1.855-0.771-2.065c0.934-2.809,2.874-11.499-3.588-12.397c-0.665-1.168-2.368-1.759-4.581-1.759  c-8.854,0.163-9.922,6.686-7.981,14.156c-0.345,0.21-0.913,0.878-0.771,2.065c0.266,2.211,1.17,2.771,1.744,2.818  c0.22,2.062,1.58,4.505,2.312,4.888c0,1.473,0.055,2.598-0.091,4.21C19.367,37.238,7.546,35.916,7,45h38  C44.455,35.916,32.685,37.238,30.933,32.528z"></path>
    <path id="unknown" d="m 24.995409,4.5456612 c -3.120045,0 -6.06598,1.0578724 -8.385121,2.9403094 -2.583787,2.1285287 -4.095059,5.2414214 -4.095059,8.5141134 0,0.901269 0.800905,1.636346 1.782883,1.636346 l 1.782883,0 c 0.981978,0 1.782882,-0.735077 1.782882,-1.636346 0,-1.882437 0.880995,-3.598683 2.395749,-4.909038 1.337162,-1.064264 2.9529,-1.6363465 4.735783,-1.6363465 0.268129,0 0.53974,-0.00639 0.807869,0.076704 3.297637,0.3259912 5.884907,2.7805108 6.24009,5.7272118 0.355184,2.70061 -1.176981,5.235029 -3.760769,6.545384 -3.743358,1.799342 -6.045087,5.235029 -6.045087,8.999903 l 0,4.832335 c 0,0.901269 0.800905,1.636346 1.782883,1.636346 l 1.782883,0 c 0.981979,0 1.782883,-0.735077 1.782883,-1.636346 l 0,-4.832335 c 0,-1.882437 1.243142,-3.67219 3.203617,-4.653359 4.547745,-2.208428 7.141979,-6.714771 6.518666,-11.377719 C 36.772187,9.4546995 32.119977,5.1944471 26.416144,4.6223649 25.970423,4.5392692 25.44113,4.5456612 24.995409,4.5456612 Z M 23.212526,40.545275 c -0.490989,0 -0.891441,0.364343 -0.891441,0.818173 l 0,3.272692 c 0,0.453831 0.400452,0.818174 0.891441,0.818174 l 3.565766,0 c 0.494472,0 0.891441,-0.364343 0.891441,-0.818174 l 0,-3.272692 c 0,-0.45383 -0.396969,-0.818173 -0.891441,-0.818173 z"></path>
</svg>